# xmcd CD database file
#
# Track frame offsets:
#	150
#	22738
#	45158
#	58695
#	80500
#	96685
#	119843
#	136327
#	156729
#	179084
#
# Disc length: 2712 seconds
#
# Revision: 0
# Processed by: cddbd v1.5.2PL0 Copyright (c) Steve Scherf et al.
# Submitted via: CDex 1.70beta2
#
DISCID=8e0a960a
DTITLE=Lisa - Embraceable
DYEAR=1900
DGENRE=Jazz
TTITLE0=Light my Fire
TTITLE1=Embraceable You with Chris Botti
TTITLE2=Smile
TTITLE3=The Man I love
TTITLE4=When I fall in love with David Foster
TTITLE5=The Nearess of you
TTITLE6=These foolish Things
TTITLE7=Seagulls
TTITLE8=Come rain or come Shine with Paul Buchanan
TTITLE9=Good morning Heartache
EXTD=
EXTT0=
EXTT1=
EXTT2=
EXTT3=
EXTT4=
EXTT5=
EXTT6=
EXTT7=
EXTT8=
EXTT9=
PLAYORDER=
